<?xml version="1.0" encoding="UTF-8" standalone="no"?>
<svg
   aria-hidden="true"
   role="img"
   class="iconify iconify--logos"
   width="31.88"
   height="32"
   preserveAspectRatio="xMidYMid meet"
   viewBox="0 0 256 257"
   version="1.1"
   id="svg6"
   sodipodi:docname="rz.svg"
   inkscape:version="1.3.2 (091e20ef0f, 2023-11-25, custom)"
   xmlns:inkscape="http://www.inkscape.org/namespaces/inkscape"
   xmlns:sodipodi="http://sodipodi.sourceforge.net/DTD/sodipodi-0.dtd"
   xmlns="http://www.w3.org/2000/svg"
   xmlns:svg="http://www.w3.org/2000/svg">
  <sodipodi:namedview
     id="namedview6"
     pagecolor="#505050"
     bordercolor="#eeeeee"
     borderopacity="1"
     inkscape:showpageshadow="0"
     inkscape:pageopacity="0"
     inkscape:pagecheckerboard="0"
     inkscape:deskcolor="#505050"
     inkscape:zoom="15.329442"
     inkscape:cx="40.31458"
     inkscape:cy="31.671082"
     inkscape:window-width="2118"
     inkscape:window-height="1370"
     inkscape:window-x="20"
     inkscape:window-y="48"
     inkscape:window-maximized="1"
     inkscape:current-layer="svg6" />
  <defs
     id="defs5">
    <linearGradient
       id="IconifyId1813088fe1fbc01fb466"
       x1="-.828%"
       x2="57.636%"
       y1="7.652%"
       y2="78.411%">
      <stop
         offset="0%"
         stop-color="#41D1FF"
         id="stop1" />
      <stop
         offset="100%"
         stop-color="#BD34FE"
         id="stop2" />
    </linearGradient>
    <linearGradient
       id="IconifyId1813088fe1fbc01fb467"
       x1="188.00649"
       x2="199.00609"
       y1="3.5533929"
       y2="141.10861"
       gradientTransform="matrix(0.88451272,0,0,1.6124832,-47.580418,0.71432949)"
       gradientUnits="userSpaceOnUse">
      <stop
         offset="0"
         stop-color="#FFEA83"
         id="stop3"
         style="stop-color:#a80000;stop-opacity:1;" />
      <stop
         offset="0.40282741"
         stop-color="#FFDD35"
         id="stop4"
         style="stop-color:#e90000;stop-opacity:1;" />
      <stop
         offset="1"
         stop-color="#FFA800"
         id="stop5"
         style="stop-color:#ff0000;stop-opacity:1;" />
    </linearGradient>
  </defs>
  <path
     fill="url(#IconifyId1813088fe1fbc01fb467)"
     d="M 173.87397,0.78956819 67.594213,21.61511 a 3.9028483,3.9028483 0 0 0 -3.145685,3.599506 L 57.911138,135.6313 a 3.9028483,3.9028483 0 0 0 4.773464,4.03422 l 29.590228,-6.82879 c 2.7683,-0.63893 5.27028,1.79975 4.70061,4.58359 l -8.79095,43.04956 c -0.59116,2.89727 2.12817,5.37417 4.95738,4.51432 l 18.27698,-5.55214 c 2.83279,-0.85986 5.55571,1.6242 4.95617,4.52387 l -13.97046,67.6203 c -0.8742,4.23007 4.75197,6.5362 7.09751,2.91043 l 1.56805,-2.42197 86.60312,-172.833602 c 1.45103,-2.893697 -1.05096,-6.193442 -4.22769,-5.579593 l -30.45964,5.878159 c -2.86147,0.551749 -5.29656,-2.113843 -4.48925,-4.913193 L 178.37634,5.701568 c 0.80852,-2.8065159 -1.63613,-5.47330361 -4.50117,-4.91199981 z"
     id="path6"
     style="fill:url(#IconifyId1813088fe1fbc01fb467);stroke-width:1.19427" />
</svg>
